<?xml version="1.0" encoding="UTF-8"?>
<!-- Generator: Adobe Illustrator 17.0.0, SVG Export Plug-In . SVG Version: 6.00 Build 0)  -->
<!DOCTYPE svg PUBLIC "-//W3C//DTD SVG 1.1//EN" "http://www.w3.org/Graphics/SVG/1.1/DTD/svg11.dtd">
<svg version="1.1" id="ibm_x5F_logo" xmlns="http://www.w3.org/2000/svg" xmlns:xlink="http://www.w3.org/1999/xlink" x="0px" y="0px" width="360px" height="240px" viewBox="0 0 360 240" enable-background="new 0 0 360 240" xml:space="preserve">
<path fill="#5A87C6" d="M120.488,145.41h66.067c-0.093,1.379-1.359,5.149-1.955,6.027h-64.113V145.41z"/>
<path fill="#5A87C6" d="M120.49,88.316h64.221c0.552,0.992,1.801,4.745,1.957,6.027H120.49V88.316z"/>
<path fill="#5A87C6" d="M132.401,122.572h45.829c1.493,1.046,4.261,4.483,5.367,6.028h-51.196V122.572z"/>
<path fill="#5A87C6" d="M168.137,140.019h19.102c0.049-1.576-0.571-4.818-1.043-6.028h-18.059V140.019z"/>
<path fill="#5A87C6" d="M132.401,117.181h45.9c1.493-1.047,4.236-4.483,5.343-6.028h-51.243V117.181z"/>
<path fill="#5A87C6" d="M168.137,99.735h19.031c-0.006,1.397-0.524,4.817-0.994,6.027h-18.037V99.735z"/>
<path fill="#5A87C6" d="M120.488,156.829h59.737c-5.293,4.486-9.968,6.027-18.169,6.027h-5.913h-35.654V156.829z"/>
<path fill="#5A87C6" d="M120.49,82.924h59.735c-5.293-4.487-9.968-6.027-18.169-6.027h-5.911H120.49V82.924z"/>
<rect x="72.843" y="76.896" fill="#5A87C6" width="41.691" height="6.027"/>
<rect x="72.843" y="88.316" fill="#5A87C6" width="41.691" height="6.027"/>
<rect x="72.843" y="145.41" fill="#5A87C6" width="41.691" height="6.027"/>
<rect x="84.753" y="133.992" fill="#5A87C6" width="17.868" height="6.028"/>
<rect x="84.753" y="122.572" fill="#5A87C6" width="17.868" height="6.028"/>
<rect x="84.753" y="111.153" fill="#5A87C6" width="17.868" height="6.028"/>
<rect x="84.753" y="99.735" fill="#5A87C6" width="17.868" height="6.027"/>
<rect x="132.401" y="133.992" fill="#5A87C6" width="17.867" height="6.028"/>
<rect x="132.401" y="99.735" fill="#5A87C6" width="17.867" height="6.027"/>
<polygon fill="#5A87C6" points="231.344,140.019 247.871,140.019 249.969,133.992 229.247,133.992 "/>
<polygon fill="#5A87C6" points="227.369,128.6 251.846,128.6 253.944,122.572 225.271,122.572 "/>
<rect x="72.843" y="156.829" fill="#5A87C6" width="41.691" height="6.027"/>
<polygon fill="#5A87C6" points="239.297,162.857 239.918,162.857 242.018,156.829 237.197,156.829 "/>
<rect x="203.871" y="133.992" fill="#5A87C6" width="17.87" height="6.028"/>
<rect x="203.871" y="122.572" fill="#5A87C6" width="17.87" height="6.028"/>
<rect x="191.962" y="156.829" fill="#5A87C6" width="29.776" height="6.027"/>
<rect x="191.962" y="145.41" fill="#5A87C6" width="29.776" height="6.027"/>
<polygon fill="#5A87C6" points="235.322,151.437 243.896,151.437 245.993,145.41 233.222,145.41 "/>
<rect x="257.477" y="133.992" fill="#5A87C6" width="17.867" height="6.028"/>
<rect x="257.477" y="122.572" fill="#5A87C6" width="17.867" height="6.028"/>
<rect x="257.474" y="156.829" fill="#5A87C6" width="29.782" height="6.027"/>
<rect x="257.477" y="145.41" fill="#5A87C6" width="29.779" height="6.027"/>
<polygon fill="#5A87C6" points="233.664,99.735 203.871,99.735 203.871,105.762 235.8,105.762 "/>
<polygon fill="#5A87C6" points="241.507,111.153 239.607,116.563 237.71,111.153 203.874,111.153 203.874,117.181 221.74,117.181   221.74,112.432 223.393,117.181 255.822,117.181 257.474,112.432 257.474,112.467 257.477,112.465 257.477,117.181 275.344,117.181   275.344,111.153 "/>
<polygon fill="#5A87C6" points="225.576,76.898 191.962,76.898 191.962,82.924 227.712,82.924 "/>
<polygon fill="#5A87C6" points="229.62,88.316 191.962,88.316 191.962,94.343 231.756,94.343 "/>
<polygon fill="#5A87C6" points="245.551,99.735 275.344,99.735 275.344,105.762 243.415,105.762 "/>
<polygon fill="#5A87C6" points="253.639,76.898 287.256,76.898 287.256,82.924 251.506,82.924 "/>
<polygon fill="#5A87C6" points="249.595,88.316 287.256,88.316 287.256,94.343 247.459,94.343 "/>
<path fill="#5A87C6" d="M293.757,158.369c0-2.593,2.108-4.711,4.711-4.711c2.595,0,4.689,2.118,4.689,4.711  c0,2.616-2.095,4.734-4.689,4.734C295.866,163.104,293.757,160.986,293.757,158.369z M302.413,158.369  c0-2.294-1.664-4.088-3.945-4.088c-2.292,0-3.967,1.794-3.967,4.088c0,2.317,1.675,4.111,3.967,4.111  C300.75,162.48,302.413,160.686,302.413,158.369z M300.813,161.01h-0.769l-1.502-2.43h-1.178v2.43h-0.645v-5.271h2.295  c1.389,0,1.862,0.523,1.862,1.396c0,1.033-0.719,1.419-1.65,1.445L300.813,161.01z M298.345,158.069  c0.744,0,1.837,0.125,1.837-0.947c0-0.821-0.67-0.921-1.315-0.921h-1.502v1.868H298.345z"/>
</svg>